<?xml version="1.0" encoding="utf-8"?>
<!-- Generator: Adobe Illustrator 24.0.0, SVG Export Plug-In . SVG Version: 6.00 Build 0)  -->
<svg version="1.1" id="Layer_1" xmlns="http://www.w3.org/2000/svg" xmlns:xlink="http://www.w3.org/1999/xlink" x="0px" y="0px"
	 viewBox="0 0 100 100" style="enable-background:new 0 0 100 100;" xml:space="preserve">
<style type="text/css">
	.st0{fill:#353535;}
</style>
<g>
	<path class="st0" d="M85.28,73.57H30.4c-2.19,0-3.97-1.78-3.97-3.97s1.78-3.97,3.97-3.97h54.88c2.19,0,3.97,1.78,3.97,3.97
		S87.47,73.57,85.28,73.57z"/>
	<path class="st0" d="M30.4,73.57c-2.19,0-3.97-1.78-3.97-3.97V14.72c0-2.19,1.78-3.97,3.97-3.97s3.97,1.78,3.97,3.97V69.6
		C34.37,71.79,32.59,73.57,30.4,73.57z"/>
	<path class="st0" d="M14.72,26.43c-2.19,0-3.97,1.78-3.97,3.97s1.78,3.97,3.97,3.97h19.64v-7.94
		C34.36,26.43,14.72,26.43,14.72,26.43z"/>
	<path class="st0" d="M69.6,26.43H42.3v7.94h27.3c2.19,0,3.97-1.78,3.97-3.97S71.79,26.43,69.6,26.43z"/>
	<path class="st0" d="M73.57,30.4c0-2.19-1.78-3.97-3.97-3.97s-3.97,1.78-3.97,3.97v27.54h7.94V30.4z"/>
	<path class="st0" d="M65.63,85.28c0,2.19,1.78,3.97,3.97,3.97s3.97-1.78,3.97-3.97v-19.4h-7.94V85.28z"/>
</g>
</svg>
