<svg id="Layer_1" data-name="Layer 1" xmlns="http://www.w3.org/2000/svg" viewBox="0 0 100.25 120"><defs><style>.cls-1,.cls-2{}.cls-2{font-size:26.2px;font-family:Quicksand-Medium, Quicksand;font-weight:500;}</style></defs><title>mp4</title><path class="cls-1" d="M0,0V28.69H100V0ZM12.88,18.88a1.44,1.44,0,0,1-1.43,1.44H8.53A1.44,1.44,0,0,1,7.1,18.88V11.44A1.44,1.44,0,0,1,8.53,10h2.92a1.44,1.44,0,0,1,1.43,1.44Zm11.44,0a1.45,1.45,0,0,1-1.44,1.44H20a1.45,1.45,0,0,1-1.44-1.44V11.44A1.45,1.45,0,0,1,20,10h2.91a1.45,1.45,0,0,1,1.44,1.44Zm11.43,0a1.45,1.45,0,0,1-1.44,1.44H31.4A1.45,1.45,0,0,1,30,18.88V11.44A1.45,1.45,0,0,1,31.4,10h2.91a1.45,1.45,0,0,1,1.44,1.44Zm11.43,0a1.45,1.45,0,0,1-1.44,1.44H42.83a1.45,1.45,0,0,1-1.44-1.44V11.44A1.45,1.45,0,0,1,42.83,10h2.91a1.45,1.45,0,0,1,1.44,1.44Zm11.43,0a1.45,1.45,0,0,1-1.44,1.44H54.26a1.45,1.45,0,0,1-1.44-1.44V11.44A1.45,1.45,0,0,1,54.26,10h2.91a1.45,1.45,0,0,1,1.44,1.44Zm11.43,0a1.45,1.45,0,0,1-1.44,1.44H65.69a1.45,1.45,0,0,1-1.44-1.44V11.44A1.45,1.45,0,0,1,65.69,10H68.6A1.45,1.45,0,0,1,70,11.44Zm11.43,0A1.45,1.45,0,0,1,80,20.32H77.12a1.45,1.45,0,0,1-1.44-1.44V11.44A1.45,1.45,0,0,1,77.12,10H80a1.45,1.45,0,0,1,1.44,1.44Zm11.43,0a1.44,1.44,0,0,1-1.43,1.44H88.55a1.44,1.44,0,0,1-1.43-1.44V11.44A1.44,1.44,0,0,1,88.55,10h2.92a1.44,1.44,0,0,1,1.43,1.44Z"/><path class="cls-1" d="M7.1,79.31V40.69a12,12,0,0,1,12-12H0V91.31H19.1A12,12,0,0,1,7.1,79.31Z"/><path class="cls-1" d="M80.9,28.69a12,12,0,0,1,12,12V79.31a12,12,0,0,1-12,12h19.35V28.69Z"/><text class="cls-2" transform="translate(20.73 68.37)">.MP4</text><path class="cls-1" d="M0,91.31V120H100V91.31Zm12.88,18.88a1.44,1.44,0,0,1-1.43,1.44H8.53a1.44,1.44,0,0,1-1.43-1.44v-7.45a1.43,1.43,0,0,1,1.43-1.43h2.92a1.43,1.43,0,0,1,1.43,1.43Zm11.44,0a1.45,1.45,0,0,1-1.44,1.44H20a1.45,1.45,0,0,1-1.44-1.44v-7.45A1.44,1.44,0,0,1,20,101.31h2.91a1.44,1.44,0,0,1,1.44,1.43Zm11.43,0a1.45,1.45,0,0,1-1.44,1.44H31.4A1.45,1.45,0,0,1,30,110.19v-7.45a1.44,1.44,0,0,1,1.44-1.43h2.91a1.44,1.44,0,0,1,1.44,1.43Zm11.43,0a1.45,1.45,0,0,1-1.44,1.44H42.83a1.45,1.45,0,0,1-1.44-1.44v-7.45a1.44,1.44,0,0,1,1.44-1.43h2.91a1.44,1.44,0,0,1,1.44,1.43Zm11.43,0a1.45,1.45,0,0,1-1.44,1.44H54.26a1.45,1.45,0,0,1-1.44-1.44v-7.45a1.44,1.44,0,0,1,1.44-1.43h2.91a1.44,1.44,0,0,1,1.44,1.43Zm11.43,0a1.45,1.45,0,0,1-1.44,1.44H65.69a1.45,1.45,0,0,1-1.44-1.44v-7.45a1.44,1.44,0,0,1,1.44-1.43H68.6A1.44,1.44,0,0,1,70,102.74Zm11.43,0A1.45,1.45,0,0,1,80,111.63H77.12a1.45,1.45,0,0,1-1.44-1.44v-7.45a1.44,1.44,0,0,1,1.44-1.43H80a1.44,1.44,0,0,1,1.44,1.43Zm11.43,0a1.44,1.44,0,0,1-1.43,1.44H88.55a1.44,1.44,0,0,1-1.43-1.44v-7.45a1.43,1.43,0,0,1,1.43-1.43h2.92a1.43,1.43,0,0,1,1.43,1.43Z"/></svg>
